<svg width="64" height="64" viewBox="0 0 64 64" fill="none" xmlns="http://www.w3.org/2000/svg">
<rect width="64" height="64" rx="32" fill="#2658CB"/>
<path fill-rule="evenodd" clip-rule="evenodd" d="M37.3333 22.6667L34.4883 22.6667C34.2578 23.0652 33.8269 23.3333 33.3333 23.3333H30.6667C30.1731 23.3333 29.7422 23.0652 29.5117 22.6667L26.6667 22.6667L26.6667 41.3333H37.3333L37.3333 22.6667ZM40 21.3333C40 20.597 39.403 20 38.6667 20H25.3333C24.597 20 24 20.597 24 21.3333V42.6667C24 43.403 24.597 44 25.3333 44H38.6667C39.403 44 40 43.403 40 42.6667L40 21.3333ZM33.3333 37.3333C33.3333 38.0697 32.7364 38.6667 32 38.6667C31.2636 38.6667 30.6667 38.0697 30.6667 37.3333C30.6667 36.597 31.2636 36 32 36C32.7364 36 33.3333 36.597 33.3333 37.3333Z" fill="white"/>
</svg>
