<svg width="64" height="64" viewBox="0 0 64 64" fill="none" xmlns="http://www.w3.org/2000/svg">
<path d="M5 51V25C5 22.7909 6.79086 21 9 21H12.5392C15.1912 21 17.6709 19.6858 19.1597 17.4911L23.7295 10.7545C24.4739 9.65712 25.7137 9 27.0397 9H36.9603C38.2863 9 39.5261 9.65712 40.2705 10.7545L44.8403 17.4911C46.3291 19.6858 48.8088 21 51.4608 21H55C57.2091 21 59 22.7909 59 25V51C59 53.2091 57.2091 55 55 55H9C6.79086 55 5 53.2091 5 51Z" stroke="white" stroke-width="4"/>
<circle cx="32.5" cy="35.5" r="10.5" stroke="white" stroke-width="4"/>
</svg>
