<svg width="64" height="112" viewBox="0 0 64 112" fill="none" xmlns="http://www.w3.org/2000/svg">
<path fill-rule="evenodd" clip-rule="evenodd" d="M27.7959 30.256C26.7334 29.4628 25.8565 28.58 25.3249 28C25.8565 27.42 26.7334 26.5372 27.7959 25.744C29.1324 24.7462 30.6179 24 32.0005 24C33.3832 24 34.8687 24.7462 36.2052 25.744C37.2677 26.5372 38.1446 27.42 38.6762 28C38.1446 28.58 37.2677 29.4628 36.2052 30.256C34.8687 31.2538 33.3832 32 32.0005 32C30.6179 32 29.1324 31.2538 27.7959 30.256ZM32.0005 22C29.9646 22 28.0465 23.0611 26.5994 24.1413C25.1268 25.2406 23.9917 26.4742 23.4993 27.0423C23.0211 27.5941 23.0211 28.4059 23.4993 28.9577C23.9917 29.5258 25.1268 30.7594 26.5994 31.8587C28.0465 32.9389 29.9646 34 32.0005 34C34.0365 34 35.9546 32.9389 37.4016 31.8587C38.8743 30.7594 40.0094 29.5258 40.5017 28.9577C40.98 28.4059 40.98 27.5941 40.5017 27.0423C40.0094 26.4742 38.8743 25.2406 37.4016 24.1413C35.9546 23.0611 34.0365 22 32.0005 22ZM32.0005 30C33.1051 30 34.0005 29.1046 34.0005 28C34.0005 26.8954 33.1051 26 32.0005 26C30.896 26 30.0005 26.8954 30.0005 28C30.0005 29.1046 30.896 30 32.0005 30Z" fill="white"/>
<path fill-rule="evenodd" clip-rule="evenodd" d="M24.3671 83.3034C23.9766 83.6939 23.9766 84.3271 24.3671 84.7176C24.7561 85.1066 25.3859 85.1081 25.7768 84.7221C25.7783 84.7206 25.7798 84.7191 25.7813 84.7176L27.8189 82.68L29.2859 81.213L30.8573 79.6416L33.6416 76.8573L35.3457 75.1532L36.7912 73.7077L39.2164 71.2825C39.2179 71.281 39.2194 71.2795 39.2208 71.278C39.6069 70.8872 39.6054 70.2574 39.2164 69.8683C38.8258 69.4778 38.1927 69.4778 37.8021 69.8683L34.9795 72.691C34.0485 72.2766 33.0399 72 32.0005 72C29.9646 72 28.0465 73.0611 26.5994 74.1413C25.1268 75.2407 23.9917 76.4742 23.4993 77.0423C23.0211 77.5942 23.0211 78.4059 23.4993 78.9578C23.9409 79.4673 24.8996 80.5121 26.1551 81.5154L24.3671 83.3034ZM30.0327 77.6378C30.1817 76.8236 30.8236 76.1816 31.6378 76.0327L33.4324 74.2381C32.9499 74.0858 32.4693 74 32.0005 74C30.6179 74 29.1324 74.7463 27.7959 75.744C26.7334 76.5372 25.8565 77.42 25.3249 78C25.8199 78.5402 26.6143 79.3428 27.5793 80.0912L30.0327 77.6378ZM31.2852 83.9574C30.5526 83.8711 30.3421 82.9869 30.8637 82.4653L31.0203 82.3087C31.2446 82.0844 31.5619 81.9883 31.879 81.9981C31.9196 81.9994 31.9601 82 32.0005 82C33.3832 82 34.8687 81.2538 36.2052 80.2561C37.2677 79.4629 38.1446 78.5801 38.6762 78C38.4395 77.7418 38.1344 77.4236 37.775 77.0799C37.3543 76.6778 37.3253 76.0037 37.7368 75.5922C38.1057 75.2233 38.6985 75.2001 39.0774 75.5586C39.7253 76.1715 40.2193 76.7164 40.5017 77.0423C40.98 77.5942 40.98 78.4059 40.5017 78.9578C40.0094 79.5258 38.8743 80.7594 37.4016 81.8587C35.9546 82.939 34.0365 84 32.0005 84C31.7603 84 31.5216 83.9853 31.2852 83.9574Z" fill="white"/>
<rect x="0.5" y="0.5" width="63" height="111" rx="4.5" stroke="#7B61FF" stroke-dasharray="10 5"/>
</svg>
