<svg width="121" height="121" viewBox="0 0 121 121" fill="none" xmlns="http://www.w3.org/2000/svg">
<g clip-path="url(#clip0_599_11578)">
<path d="M67.0962 27.1782C66.0249 27.502 65.0449 28.0854 64.2339 28.8965L35.1855 57.9443C34.3584 58.7715 33.7866 59.7588 33.4688 60.8066L61.4912 55.2021L67.0962 27.1782Z" fill="white"/>
<path d="M90.9835 45.895L73.9849 28.896C73.1255 28.0371 72.0762 27.4351 70.9302 27.125L64.9229 57.1631C64.7745 57.9053 64.1944 58.4858 63.4522 58.6343L33.4136 64.6421C33.7183 65.7612 34.3077 66.8188 35.1851 67.6963L36.6783 69.1895L29.5489 76.3188C28.817 77.0513 28.817 78.2383 29.5494 78.9707C29.9156 79.3364 30.3951 79.5195 30.8751 79.5195C31.355 79.5195 31.8345 79.3364 32.2007 78.9707L39.3301 71.8413L42.3585 74.8696L29.5489 87.6792C28.817 88.4111 28.817 89.5986 29.5494 90.3306C29.9156 90.6968 30.3951 90.8799 30.8751 90.8799C31.355 90.8799 31.8345 90.6968 32.2007 90.3306L45.0103 77.521L48.0386 80.5498L40.9097 87.6792C40.1773 88.4111 40.1773 89.5986 40.9097 90.3306C41.2755 90.6968 41.7554 90.8799 42.2354 90.8799C42.7154 90.8799 43.1949 90.6968 43.5611 90.3306L50.6905 83.2017L52.1837 84.6948C53.4825 85.9932 55.2139 86.7085 57.0596 86.7085C58.9053 86.7085 60.6373 85.9932 61.9356 84.6948L90.9835 55.647C93.6724 52.958 93.6724 48.5835 90.9835 45.895Z" fill="white"/>
</g>
<circle cx="60.5" cy="60.5" r="59.5" stroke="white" stroke-width="2"/>
<defs>
<clipPath id="clip0_599_11578">
<rect width="64" height="64" fill="white" transform="translate(29 27)"/>
</clipPath>
</defs>
</svg>
