<svg width="64" height="64" viewBox="0 0 64 64" fill="none" xmlns="http://www.w3.org/2000/svg">
<rect width="64" height="64" rx="32" fill="#2658CB"/>
<path d="M38 28C38 26.4087 37.3679 24.8826 36.2426 23.7574C35.1174 22.6321 33.5913 22 32 22C30.4087 22 28.8826 22.6321 27.7574 23.7574C26.6321 24.8826 26 26.4087 26 28C26 35 23 37 23 37H41C41 37 38 35 38 28Z" stroke="white" stroke-width="2.66667" stroke-linecap="round" stroke-linejoin="round"/>
<path d="M33.7295 41C33.5537 41.3031 33.3014 41.5547 32.9978 41.7295C32.6941 41.9044 32.3499 41.9965 31.9995 41.9965C31.6492 41.9965 31.3049 41.9044 31.0013 41.7295C30.6977 41.5547 30.4453 41.3031 30.2695 41" stroke="white" stroke-width="2.66667" stroke-linecap="round" stroke-linejoin="round"/>
</svg>
