<svg width="90" height="90" viewBox="0 0 90 90" fill="none" xmlns="http://www.w3.org/2000/svg">
<path d="M53.1534 15H26.25C24.1789 15 22.5 16.6789 22.5 18.75V71.25C22.5 73.3211 24.1789 75 26.25 75H67.5C69.5711 75 71.25 73.3211 71.25 71.25V33.75M53.1534 15V30C53.1534 32.0711 54.8323 33.75 56.9034 33.75H71.25M53.1534 15L71.25 33.75" stroke="white" stroke-width="4" stroke-linejoin="round"/>
<path d="M39.0245 41C40.9645 41 42.5668 41.5101 43.8314 42.5304C45.1103 43.5507 45.9366 44.9303 46.3103 46.6691H42.4087C42.1213 45.965 41.6758 45.4117 41.0723 45.0093C40.4831 44.607 39.7789 44.4058 38.9598 44.4058C37.882 44.4058 37.0126 44.801 36.3516 45.5913C35.6906 46.3817 35.36 47.4379 35.36 48.76C35.36 50.0821 35.6906 51.1383 36.3516 51.9287C37.0126 52.7047 37.882 53.0927 38.9598 53.0927C39.7789 53.0927 40.4831 52.8915 41.0723 52.4891C41.6758 52.0867 42.1213 51.5407 42.4087 50.8509H46.3103C45.9366 52.5753 45.1103 53.9549 43.8314 54.9896C42.5668 56.0099 40.9645 56.52 39.0245 56.52C37.5443 56.52 36.2438 56.1967 35.1229 55.55C34.002 54.889 33.1326 53.9693 32.5147 52.7909C31.9112 51.6125 31.6094 50.2689 31.6094 48.76C31.6094 47.2511 31.9112 45.9075 32.5147 44.7291C33.1326 43.5507 34.002 42.6382 35.1229 41.9916C36.2438 41.3305 37.5443 41 39.0245 41Z" fill="white"/>
<path d="M51.2214 41.1509L54.9505 52.6184L58.6796 41.1509H62.6243L57.3216 56.3907H52.5578L47.2767 41.1509H51.2214Z" fill="white"/>
</svg>
